<svg xmlns="http://www.w3.org/2000/svg" version="1.1" xmlns:xlink="http://www.w3.org/1999/xlink" xmlns:svgjs="http://svgjs.dev/svgjs" width="2000" height="1247" viewBox="0 0 2000 1247"><g transform="matrix(1,0,0,1,-1.2121212121212466,0.504858299595071)"><svg viewBox="0 0 396 247" data-background-color="#ffffff" preserveAspectRatio="xMidYMid meet" height="1247" width="2000" xmlns="http://www.w3.org/2000/svg" xmlns:xlink="http://www.w3.org/1999/xlink"><g id="tight-bounds" transform="matrix(1,0,0,1,0.2400000000000091,-0.09999999999999432)"><svg viewBox="0 0 395.52 247.2" height="247.2" width="395.52"><g><svg></svg></g><g><svg viewBox="0 0 395.52 247.2" height="247.2" width="395.52"><g transform="matrix(1,0,0,1,75.54432,101.46056225214198)"><svg viewBox="0 0 244.43135999999998 44.27887549571603" height="44.27887549571603" width="244.43135999999998"><g><svg viewBox="0 0 244.43135999999998 44.27887549571603" height="44.27887549571603" width="244.43135999999998"><g><svg viewBox="0 0 244.43136 44.278875495716036" height="44.27887549571603" width="244.43135999999998"><g><svg viewBox="0 0 244.43136 44.278875495716036" height="44.278875495716036" width="244.43136"><g id="textblocktransform"><svg viewBox="0 0 244.43136 44.278875495716036" height="44.278875495716036" width="244.43136" id="textblock"><g><svg viewBox="0 0 244.43136 44.278875495716036" height="44.278875495716036" width="244.43136"><g transform="matrix(1,0,0,1,0,0)"><svg width="244.43136" viewBox="-12.5 -31.25 204.24 37" height="44.278875495716036" data-palette-color="#1e55b3"><path d="M35.05 0L26.3 0 26.1-4.05 19.8-4.05 18.25 0 9.6 0 20.7-26.45 33.1-26.45 35.05 0ZM22.45-11.2L26.1-11.2 26.1-18.8 25.4-18.8 22.45-11.2ZM8.95-2.4L8-0.2-12.5-2.4 8.95-2.4ZM11-7.25L10.05-5.05-10.45-7.25 11-7.25ZM13-12.05L12.1-9.85-8.4-12.05 13-12.05ZM15.05-16.85L14.1-14.65-6.35-16.85 15.05-16.85ZM17.05-21.65L16.15-19.45-4.3-21.65 17.05-21.65ZM19.05-26.45L18.15-24.3-2.25-26.45 19.05-26.45ZM70.55 0L62.15 0 63.7-9.15 58.1-9.15 56.5 0 48.1 0 52.7-26.45 61.15-26.45 59.5-17.3 65.15-17.3 66.75-26.45 75.2-26.45 70.55 0ZM46.85-2.4L46.45-0.15 25.25-2.4 46.85-2.4ZM48.55-12.05L48.15-9.8 26.95-12.05 48.55-12.05ZM49.4-16.85L49-14.6 27.8-16.85 49.4-16.85ZM50.25-21.65L49.85-19.4 28.65-21.65 50.25-21.65ZM51.05-26.45L50.7-24.2 29.5-26.45 51.05-26.45ZM47.7-7.25L47.3-5 26.1-7.25 47.7-7.25ZM67.95-21.65L89.55-21.65 89.09-19.4 67.95-21.65ZM64.45-12.05L86.05-12.05Q85.5-9.95 85.5-9.8L85.5-9.8 64.45-12.05ZM64-7.25L85.15-7.25 85.15-5 64-7.25ZM90.34-24.25L69.7-26.45 91.25-26.45Q90.7-25.3 90.34-24.25L90.34-24.25ZM67.2-16.85L88.8-16.85Q87.84-15.8 87.25-14.7L87.25-14.7 67.2-16.85ZM65.75-2.4L85.65-2.4Q86.05-1.15 86.9-0.15L86.9-0.15 65.75-2.4ZM73.8-31.25L95.3-31.25Q94.05-30.45 92.95-29.2L92.95-29.2 73.8-31.25ZM93.55 0.75L93.55 0.75Q86.65 0.75 86.65-5.95L86.65-5.95Q86.65-9.9 88.25-13.4L88.25-13.4Q89.09-15.25 90.7-16.55 92.3-17.85 94.5-18.15L94.5-18.15 94.5-18.35 90.7-19.8Q91.9-26.45 94.57-28.85 97.25-31.25 101.7-31.25 106.15-31.25 110.7-30.2L110.7-30.2 108-23.1 103.8-23.1Q102.25-23.1 101.5-22.68 100.75-22.25 100.55-21L100.55-21 100.25-19.1 117.65-19.1 115.34-12.1 112.05-12.1 109.05 5 103.05 5.75 103.05-1.05Q97 0.75 93.55 0.75ZM99.55-7.15L99.55-7.15Q101.34-7.15 103.05-7.4L103.05-7.4 103.05-12.1 97.5-12.1Q96.95-10.1 96.95-9L96.95-9Q96.95-7.15 99.55-7.15ZM150.74 0L142.34 0 143.89-9.15 138.29-9.15 136.69 0 128.29 0 132.89-26.45 141.34-26.45 139.69-17.3 145.34-17.3 146.94-26.45 155.39-26.45 150.74 0ZM127.04-2.4L126.64-0.15 105.44-2.4 127.04-2.4ZM128.74-12.05L128.34-9.8 107.14-12.05 128.74-12.05ZM129.59-16.85L129.19-14.6 107.99-16.85 129.59-16.85ZM130.44-21.65L130.04-19.4 108.84-21.65 130.44-21.65ZM131.24-26.45L130.89-24.2 109.69-26.45 131.24-26.45ZM127.89-7.25L127.49-5 106.29-7.25 127.89-7.25ZM191.74 0L182.99 0 182.79-4.05 176.49-4.05 174.94 0 166.29 0 177.39-26.45 189.79-26.45 191.74 0ZM179.14-11.2L182.79-11.2 182.79-18.8 182.09-18.8 179.14-11.2ZM165.64-2.4L164.69-0.2 144.19-2.4 165.64-2.4ZM167.69-7.25L166.74-5.05 146.24-7.25 167.69-7.25ZM169.69-12.05L168.79-9.85 148.29-12.05 169.69-12.05ZM171.74-16.85L170.79-14.65 150.34-16.85 171.74-16.85ZM173.74-21.65L172.84-19.45 152.39-21.65 173.74-21.65ZM175.74-26.45L174.84-24.3 154.44-26.45 175.74-26.45Z" opacity="1" transform="matrix(1,0,0,1,0,0)" fill="#1e55b3" class="wordmark-text-0" data-fill-palette-color="primary" id="text-0"></path></svg></g></svg></g></svg></g></svg></g></svg></g></svg></g></svg></g><path d="M208.674 95.461L208.674 33.902 388.069 33.902 388.069 213.298 208.674 213.298 208.674 151.739 212.667 151.739 212.667 209.304 384.076 209.304 384.076 37.896 212.667 37.896 212.667 95.461Z" fill="#1e55b3" stroke="transparent" data-fill-palette-color="tertiary"></path></svg></g><defs></defs></svg><rect width="395.52" height="247.2" fill="none" stroke="none" visibility="hidden"></rect></g></svg></g></svg>